<?xml version="1.0" encoding="iso-8859-1"?>
<!-- Generator: Adobe Illustrator 19.0.0, SVG Export Plug-In . SVG Version: 6.00 Build 0)  -->
<svg version="1.1" id="Capa_1" xmlns="http://www.w3.org/2000/svg" xmlns:xlink="http://www.w3.org/1999/xlink" x="0px" y="0px"
	 viewBox="0 0 350.8 350.8" style="enable-background:new 0 0 350.8 350.8;" xml:space="preserve">
<g>
	<g>
		<path d="M75.794,197.2c-4,0-7.2,3.2-7.2,7.2v48.4c0,4,3.2,7.2,7.2,7.2s7.2-3.2,7.2-7.2v-48.4
			C82.994,200.4,79.794,197.2,75.794,197.2z"/>
	</g>
</g>
<g>
	<g>
		<path d="M108.194,197.2c-4,0-7.2,3.2-7.2,7.2v48.4c0,4,3.2,7.2,7.2,7.2s7.2-2.8,7.2-6.8v-48.8
			C115.394,200.4,112.194,197.2,108.194,197.2z"/>
	</g>
</g>
<g>
	<g>
		<path d="M140.194,197.2c-4,0-7.2,3.2-7.2,7.2v48.4c0,4,3.2,7.2,7.2,7.2s7.2-2.8,7.2-6.8v-48.8
			C147.394,200.4,144.194,197.2,140.194,197.2z"/>
	</g>
</g>
<g>
	<g>
		<path d="M172.594,197.2c-4,0-7.2,3.2-7.2,7.2v48.4c0,4,3.2,7.2,7.2,7.2s7.2-2.8,7.2-6.8v-48.8
			C179.794,200.4,176.594,197.2,172.594,197.2z"/>
	</g>
</g>
<g>
	<g>
		<path d="M207.394,0c-50,0-90.8,35.6-90.8,78.8v28c-35.6,3.6-63.2,33.6-63.2,70.4c0,4,3.2,7.2,7.2,7.2h126.4c4,0,7.2-3.2,7.2-7.2
			c0-36.4-27.6-66.4-63.2-70.4v-28c0-35.6,34-64.4,76-64.4s76,28.8,76,64.4v264.8c0,4,3.2,7.2,7.2,7.2s7.2-3.2,7.2-7.2V79.2
			C298.194,35.6,257.394,0,207.394,0z M179.394,170h-110.8c3.6-27.2,27.2-48.4,55.6-48.4C152.594,121.6,175.794,142.8,179.394,170z"
			/>
	</g>
</g>
<g>
</g>
<g>
</g>
<g>
</g>
<g>
</g>
<g>
</g>
<g>
</g>
<g>
</g>
<g>
</g>
<g>
</g>
<g>
</g>
<g>
</g>
<g>
</g>
<g>
</g>
<g>
</g>
<g>
</g>
</svg>
